<svg height="512pt" viewBox="0 0 512 512" width="512pt" xmlns="http://www.w3.org/2000/svg" xmlns:xlink="http://www.w3.org/1999/xlink"><linearGradient id="a" gradientUnits="userSpaceOnUse" x1="0" x2="512" y1="256" y2="256"><stop offset="0" stop-color="#80d8ff"/><stop offset="1" stop-color="#ea80fc"/></linearGradient><path d="m452 512h-392c-33.085938 0-60-26.914062-60-60v-392c0-33.085938 26.914062-60 60-60h392c33.085938 0 60 26.914062 60 60v392c0 33.085938-26.914062 60-60 60zm-392-472c-11.027344 0-20 8.972656-20 20v392c0 11.027344 8.972656 20 20 20h392c11.027344 0 20-8.972656 20-20v-392c0-11.027344-8.972656-20-20-20zm353.667969 373.332031v-118c0-54.402343-44.261719-98.667969-98.667969-98.667969s-98.667969 44.265626-98.667969 98.667969v118c0 11.046875 8.953125 20 20 20s20-8.953125 20-20v-118c0-32.347656 26.320313-58.667969 58.667969-58.667969s58.667969 26.320313 58.667969 58.667969v118c0 11.046875 8.953125 20 20 20s20-8.953125 20-20zm-275.335938 0v-196.664062c0-11.046875-8.953125-20-20-20s-20 8.953125-20 20v196.667969c0 11.042968 8.953125 20 20 20s20-8.957032 20-20.003907zm-20.003906-295.332031c-11.042969 0-20 8.953125-20 20s8.957031 20 20 20c11.046875 0 20-8.953125 20-20s-8.953125-20-20-20zm0 0" fill="url(#a)"/></svg>