<?xml version="1.0" encoding="iso-8859-1"?>
<!-- Generator: Adobe Illustrator 19.0.0, SVG Export Plug-In . SVG Version: 6.00 Build 0)  -->
<svg version="1.1" id="Layer_1" xmlns="http://www.w3.org/2000/svg" xmlns:xlink="http://www.w3.org/1999/xlink" x="0px" y="0px"
	 viewBox="0 0 253.019 253.019" style="enable-background:new 0 0 253.019 253.019;" xml:space="preserve">
<g>
	<g>
		<path style="fill:#4EFFBB;" d="M248.931,28.547c-2.064-1.358-4.74-1.614-7.056-0.439L25.442,137.165
			c-2.749,1.394-4.307,4.4-3.944,7.481c0.396,3.081,2.64,5.611,5.645,6.233c25.687,5.538,65.596,14.301,79.091,17.675v71.509
			c0,3.081,1.881,5.831,4.74,6.893c0.796,0.295,1.591,0.441,2.423,0.441c2.061,0,4.088-0.953,5.499-2.64l44.756-55.079
			c12.049,4.878,47.542,18.85,77.933,30.804c0.832,0.292,1.701,0.478,2.57,0.478c1.411,0,2.786-0.441,4.015-1.285
			c1.917-1.321,3.076-3.556,3.112-5.977l1.737-178.586C253.018,32.252,251.391,29.759,248.931,28.547z M114.519,155.832
			c0.686,0.11,1.375,0.365,2.064,0.77C116.076,156.38,115.424,156.125,114.519,155.832z"/>
		<g id="XMLID_13_">
			<g>
				<path style="fill:#302C58;" d="M192.097,54.445c-5.029,8.69-10.422,17.97-15.774,27.247
					c-24.205,41.914-34.841,60.654-39.328,69.746l-37.916,46.646v-53.1c1.195-0.99,2.423-2.089,3.762-3.3
					c3.545-3.3,8.684-8.142,15.232-14.484c10.998-10.599,26.23-25.487,45.226-44.261C173.211,73.182,183.09,63.393,192.097,54.445z"
					/>
				<path style="fill:#222051;" d="M95.039,75.218l-0.107-0.11c-2.168-2.196-5.476-2.744-8.22-1.361l-13.967,7.037
					c-4.366,2.201-5.316,8.091-1.87,11.585l0.107,0.107c2.168,2.196,5.476,2.744,8.22,1.363l13.967-7.037
					C97.538,84.605,98.489,78.712,95.039,75.218z"/>
				<path style="fill:#222051;" d="M227.483,6.81c-2.061-1.358-4.74-1.614-7.054-0.441l-107.94,54.39
					c-4.411,2.221-5.372,8.175-1.889,11.706l0,0c2.19,2.218,5.533,2.772,8.305,1.378l67.331-33.916
					c-40.595,40.264-84.843,83.791-95.734,93.4c-7.163-2.016-23.337-5.831-61.652-14.118l24.577-12.381
					c4.408-2.221,5.37-8.17,1.886-11.698l0,0c-2.187-2.218-5.53-2.772-8.299-1.375L3.995,115.428
					c-2.749,1.394-4.304,4.4-3.944,7.481c0.399,3.081,2.64,5.611,5.645,6.233c25.687,5.538,65.596,14.301,79.091,17.675v71.34
					c0,3.011,1.729,5.839,4.484,6.964c0.88,0.36,1.757,0.54,2.679,0.54c2.064,0,4.088-0.953,5.499-2.64l44.756-55.079
					c12.049,4.878,47.542,18.85,77.933,30.804c0.832,0.292,1.701,0.478,2.57,0.478c1.411,0,2.786-0.441,4.017-1.282
					c1.917-1.321,3.076-3.556,3.112-5.977l1.737-178.583C231.571,10.515,229.943,8.022,227.483,6.81z M136.995,151.438
					l-37.916,46.646v-53.1c1.195-0.99,2.423-2.089,3.762-3.3c3.545-3.3,8.684-8.142,15.232-14.484
					c10.998-10.599,26.23-25.487,45.226-44.261c9.913-9.755,19.792-19.544,28.799-28.493c-5.029,8.69-10.422,17.97-15.774,27.247
					C152.117,123.606,141.482,142.344,136.995,151.438z M215.65,181.289c-23.553-9.241-52.063-20.497-64.764-25.561
					c9.696-18.189,40.595-71.728,66.103-115.475L215.65,181.289z"/>
				<path style="fill:#222051;" d="M95.135,134.863c-0.686-0.405-1.375-0.661-2.061-0.77
					C93.976,134.388,94.629,134.643,95.135,134.863z"/>
			</g>
		</g>
	</g>
</g>
<g>
</g>
<g>
</g>
<g>
</g>
<g>
</g>
<g>
</g>
<g>
</g>
<g>
</g>
<g>
</g>
<g>
</g>
<g>
</g>
<g>
</g>
<g>
</g>
<g>
</g>
<g>
</g>
<g>
</g>
</svg>
