<svg fill="none" height="102" viewBox="0 0 135 102" width="135" xmlns="http://www.w3.org/2000/svg"><path d="m115.146 19.3823c4.421-.4847 8.425 3.6026 8.406 8.4286-.207 30.7863-20.321 57.471-47.9029 60.6186-27.5821 3.1477-54.079-17.9736-61.4564-47.9029-1.1388-4.65 2.7611-9.322 7.1819-9.8067 23.4865-2.7366 23.535-2.1449 47.003-4.9634 23.4679-2.8185 23.3637-3.656 46.7684-6.3742z" fill="#ffd74a"/><path d="m68.03 12.1446c-1.8647-1.8163-4.2981 1.4041-2.452 3.1385 3.4296 3.4423 5.9136 7.6155 7.2335 12.3106 1.2828 4.5312 2.4306 15.6371-5.9394 10.3862-2.197-1.3967-4.7117 1.8422-2.452 3.1385 6.7907 4.317 13.2956 2.8436 13.4362-5.9709.1592-8.7326-3.6404-16.8268-9.8263-23.0029z" fill="#273339"/><path d="m92.2756 51.2549c-6.959 15.6974-26.5595 19.362-38.8829 7.6017-1.8646-1.8164-4.3794 1.4224-2.452 3.1385 14.2879 13.6402 37.1922 8.7106 45.0255-9.1652 1.0997-2.3156-2.5909-3.8906-3.6906-1.575z" fill="#273339"/><path d="m30.7493 79.6563c-5.6137-2.5171-9.5115-8.7809-13.0754-13.5704-4.2116-5.7622-7.6471-11.8724-8.81744-18.9262-.41246-2.5758-4.40819-2.1013-3.99572.4745 1.33725 7.7909 5.00255 14.5379 9.68776 20.8817 3.9748 5.4714 8.3719 12.0526 14.6475 14.8503 2.3667 1.0138 3.92-2.6961 1.5533-3.7099z" fill="#00e97b"/></svg>