<?xml version="1.0" standalone="no"?>
<svg viewBox="0 0 200 200" xmlns="http://www.w3.org/2000/svg">
  <path fill="#5AE87C" d="M37.8,-64C44,-61.8,40.8,-41.7,46.8,-28.1C52.9,-14.4,68.3,-7.2,69.2,0.5C70.1,8.3,56.5,16.5,45.1,20.9C33.6,25.3,24.4,25.8,17.3,37.2C10.1,48.7,5.1,71,-1,72.7C-7,74.4,-14,55.5,-25,46.2C-36,37,-51,37.6,-52.6,31.5C-54.1,25.4,-42.2,12.7,-35.1,4.1C-28.1,-4.6,-25.9,-9.1,-27.1,-19.9C-28.3,-30.7,-32.9,-47.8,-28.9,-51.3C-24.9,-54.8,-12.5,-44.9,1.6,-47.7C15.8,-50.6,31.5,-66.2,37.8,-64Z" transform="translate(100 100)" />
</svg>
